<?xml version="1.0" encoding="UTF-8" standalone="no"?>
<!-- Created with Inkscape (http://www.inkscape.org/) -->

<svg
   width="17.991667mm"
   height="17.991667mm"
   viewBox="0 0 17.991667 17.991667"
   version="1.1"
   id="svg1778"
   inkscape:version="1.2 (dc2aeda, 2022-05-15)"
   sodipodi:docname="BPressed.svg"
   xmlns:inkscape="http://www.inkscape.org/namespaces/inkscape"
   xmlns:sodipodi="http://sodipodi.sourceforge.net/DTD/sodipodi-0.dtd"
   xmlns="http://www.w3.org/2000/svg"
   xmlns:svg="http://www.w3.org/2000/svg">
  <sodipodi:namedview
     id="namedview1780"
     pagecolor="#505050"
     bordercolor="#eeeeee"
     borderopacity="1"
     inkscape:showpageshadow="0"
     inkscape:pageopacity="0"
     inkscape:pagecheckerboard="0"
     inkscape:deskcolor="#505050"
     inkscape:document-units="mm"
     showgrid="false"
     inkscape:zoom="0.2102413"
     inkscape:cx="-670.65795"
     inkscape:cy="492.29147"
     inkscape:window-width="1440"
     inkscape:window-height="767"
     inkscape:window-x="0"
     inkscape:window-y="25"
     inkscape:window-maximized="1"
     inkscape:current-layer="layer1" />
  <defs
     id="defs1775" />
  <g
     inkscape:label="Layer 1"
     inkscape:groupmode="layer"
     id="layer1"
     transform="translate(-55.186369,-18.690611)">
    <g
       id="g5009"
       inkscape:label="Button B Active"
       style="display:inline"
       transform="matrix(0.26458333,0,0,0.26458333,-158.91456,-88.888915)">
      <path
         id="path5005"
         class="st0"
         inkscape:label="ButtonB"
         d="m 843.20037,408.59979 a 32,32 0 0 0 -32,32 32,32 0 0 0 32,32 32,32 0 0 0 32,-32 32,32 0 0 0 -32,-32 z"
         style="fill:#80ff00;fill-opacity:0.843137;stroke:#ffffff;stroke-width:4;stroke-linecap:round;stroke-linejoin:round;stroke-miterlimit:15.1181" />
      <path
         class="st7"
         d="m 827,419.2 h 16.8 c 3.3,0 5.8,0.1 7.4,0.4 1.6,0.3 3.1,0.9 4.4,1.7 1.3,0.9 2.4,2 3.2,3.5 0.8,1.5 1.3,3.1 1.3,4.9 0,2 -0.5,3.8 -1.6,5.4 -1.1,1.6 -2.5,2.9 -4.3,3.7 2.6,0.7 4.5,2 5.9,3.8 1.4,1.8 2.1,3.9 2.1,6.3 0,1.9 -0.4,3.8 -1.3,5.6 -0.9,1.8 -2.1,3.2 -3.6,4.3 -1.5,1.1 -3.4,1.7 -5.7,2 -1.4,0.2 -4.8,0.2 -10.2,0.3 H 827 Z m 8.5,7 v 9.7 h 5.6 c 3.3,0 5.4,0 6.2,-0.1 1.5,-0.2 2.6,-0.7 3.4,-1.5 0.8,-0.8 1.2,-1.9 1.2,-3.3 0,-1.3 -0.4,-2.4 -1.1,-3.2 -0.7,-0.8 -1.8,-1.3 -3.2,-1.5 -0.8,-0.1 -3.3,-0.1 -7.2,-0.1 z m 0,16.7 v 11.2 h 7.8 c 3.1,0 5,-0.1 5.8,-0.3 1.3,-0.2 2.3,-0.8 3.1,-1.7 0.8,-0.9 1.2,-2.1 1.2,-3.6 0,-1.3 -0.3,-2.3 -0.9,-3.2 -0.6,-0.9 -1.5,-1.5 -2.7,-1.9 -1.2,-0.4 -3.7,-0.6 -7.5,-0.6 h -6.8 z"
         id="path5007"
         inkscape:label="B"
         style="display:inline;fill:#ffffff" />
    </g>
  </g>
</svg>
